<svg id="Layer_1" data-name="Layer 1" xmlns="http://www.w3.org/2000/svg" viewBox="0 0 1280.17 129.13"><defs><style>.cls-1{fill:#12a1be;}</style></defs><title>wave01</title><path class="cls-1" d="M1324,365c0,27,0,54,.06,81,0,2.43-.46,3.54-3,3a10.27,10.27,0,0,0-2,0Q684,449,49,449.12c-4.31,0-5.12-1-5.08-5.15.22-26.65.11-53.31.11-80,1.77.51,3.23-.52,4.76-1a693.78,693.78,0,0,1,79.85-21.06q39.34-8.11,79.18-13.08c18.42-2.32,36.87-4.28,55.36-5.62,15.73-1.14,31.49-2.57,47.3-2.22.94,0,2.05.26,2.55-1h75c.5,1.24,1.61,1,2.55,1,13.82-.06,27.57,1.06,41.35,1.93,18.72,1.17,37.36,2.92,56,5,24,2.66,47.9,6.09,71.75,10,32.3,5.26,64.37,11.59,96,19.72,62.72,16.13,125.61,31.26,190,39.69,22,2.88,44,5.63,66.14,7.58s44.1,3.52,66.19,4c48.09,1,96.21.58,144.15-4,23.23-2.2,46.41-5,69.48-8.71,24-3.86,47.78-8.43,71.44-13.94C1283.63,377.43,1303.87,371.41,1324,365Z" transform="translate(-43.89 -320)"/></svg>